<?xml version="1.0" standalone="no"?>
<!DOCTYPE svg PUBLIC "-//W3C//DTD SVG 20010904//EN"
 "http://www.w3.org/TR/2001/REC-SVG-20010904/DTD/svg10.dtd">
<svg version="1.0" xmlns="http://www.w3.org/2000/svg"
 width="9398.000000pt" height="1393.000000pt" viewBox="0 0 9398.000000 1393.000000"
 preserveAspectRatio="xMidYMid meet">

<g transform="translate(0.000000,1393.000000) scale(0.100000,-0.100000)"
fill="#000000" stroke="none">
<path d="M64430 13919 c-295 -26 -586 -122 -810 -269 -158 -104 -246 -203
-495 -555 -121 -170 -393 -555 -605 -855 -552 -779 -798 -1132 -2185 -3120
-2485 -3563 -3327 -4780 -4490 -6500 -303 -449 -368 -562 -440 -769 -81 -237
-117 -436 -118 -651 0 -226 38 -364 134 -493 185 -245 634 -473 1079 -546 283
-46 991 -60 2150 -42 963 14 1474 2 1965 -46 238 -24 682 -23 860 1 536 73
953 247 1355 566 142 113 413 386 541 547 148 186 243 321 429 613 611 957
1142 1720 2611 3750 245 338 566 784 713 990 147 206 273 380 280 387 11 13
42 -22 361 -403 130 -155 75 -77 2140 -3019 755 -1075 1654 -2350 1728 -2450
266 -357 634 -669 977 -828 683 -317 1444 -294 2252 67 l58 26 -114 162 c-62
90 -1032 1488 -2156 3108 -4577 6596 -6783 9769 -6852 9857 -263 333 -808 521
-1368 472z m150 -2846 c19 -26 162 -214 319 -418 516 -671 728 -962 904 -1245
46 -74 90 -153 98 -175 9 -26 13 -78 12 -145 -2 -184 -70 -391 -185 -567 -74
-112 -722 -1050 -1216 -1758 -832 -1192 -1772 -2518 -2627 -3705 -192 -266
-277 -357 -424 -455 -183 -122 -332 -177 -526 -195 -304 -27 -588 -32 -1505
-25 -514 4 -936 8 -938 10 -5 5 6040 8725 6048 8725 3 0 22 -21 40 -47z"/>
<path d="M0 6960 l0 -6960 1040 0 1040 0 0 6960 0 6960 -1040 0 -1040 0 0
-6960z"/>
<path d="M52120 13893 c-322 -2 -3843 -8 -7825 -13 -4941 -6 -7275 -13 -7350
-20 -827 -79 -1371 -338 -1733 -823 -238 -319 -378 -729 -449 -1317 -16 -136
-18 -465 -21 -5510 -2 -3621 0 -5407 7 -5495 6 -71 21 -223 33 -337 l22 -208
1123 0 1122 0 4 2373 c3 1769 7 2396 16 2467 43 345 104 512 232 640 129 128
290 186 649 232 74 9 1904 13 8173 15 l8077 3 0 1129 0 1128 -82 6 c-46 4
-3905 7 -8575 7 l-8493 0 0 211 c0 117 5 445 11 731 11 556 4 938 -27 1308
-28 342 -5 570 76 739 33 68 56 100 118 160 114 112 239 168 462 208 96 16
164 18 775 17 3482 -8 15640 -14 15682 -9 l53 6 0 1175 0 1174 -262 0 c-145 0
-481 2 -748 3 -267 2 -748 2 -1070 0z"/>
<path d="M24086 13883 c-4 -5 -1487 -8 -3294 -9 -5613 0 -8869 -42 -11342
-144 -488 -20 -686 -52 -995 -161 -464 -162 -884 -436 -1285 -838 -661 -661
-1083 -1495 -1217 -2406 -26 -173 -26 -671 0 -835 52 -331 159 -716 298 -1070
579 -1477 1786 -2380 3459 -2589 91 -12 212 -25 270 -31 182 -18 3562 -31
6810 -25 3613 6 5722 -4 5870 -29 327 -54 584 -150 820 -307 126 -83 315 -272
398 -398 210 -315 301 -705 263 -1130 -37 -416 -168 -720 -415 -966 -108 -107
-200 -175 -336 -248 -238 -129 -558 -214 -925 -247 -151 -14 -9885 -14 -12140
0 -847 5 -1916 10 -2376 10 l-837 0 -3 -527 c-2 -291 -2 -836 0 -1212 l3 -684
877 6 c482 4 1142 12 1466 18 420 9 2219 13 6240 13 4386 1 5714 4 5935 14
1035 46 1512 83 1820 143 572 112 1105 361 1575 735 142 113 456 428 569 569
471 593 751 1255 853 2015 26 194 26 727 0 920 -65 479 -199 905 -434 1375
-372 744 -890 1327 -1514 1706 -599 363 -1295 561 -2139 609 -112 6 -2365 10
-6220 10 -4013 0 -6090 3 -6180 10 -692 53 -1218 367 -1483 887 -213 419 -230
938 -47 1457 210 594 598 883 1322 983 115 16 639 17 7866 20 l7742 3 0 1180
0 1180 -633 0 c-349 0 -637 -3 -641 -7z"/>
<path d="M91185 13879 c-1632 -13 -7811 -20 -11235 -12 -1944 4 -3653 7 -3797
5 l-263 -3 0 -27 c0 -15 -7 -36 -15 -46 -13 -17 -15 -168 -15 -1118 0 -969 2
-1098 15 -1098 8 0 15 -8 15 -18 0 -18 28 -19 638 -25 350 -4 1879 -7 3397 -7
1782 0 2811 -4 2905 -10 582 -42 779 -180 854 -600 41 -225 40 -86 43 -5598
l3 -5322 1155 0 1155 0 -6 4888 c-7 4999 -5 5329 31 5663 37 353 109 553 250
695 147 149 339 216 739 261 138 16 444 18 3536 23 l3385 5 0 1175 0 1175
-995 1 c-547 0 -1355 -3 -1795 -7z"/>
<path d="M29430 6950 l0 -6910 1180 0 1180 0 0 6910 0 6910 -1180 0 -1180 0 0
-6910z"/>
</g>
</svg>
